<svg id="visual" viewBox="0 0 1600 1200" width="1600" height="1200" xmlns="http://www.w3.org/2000/svg" xmlns:xlink="http://www.w3.org/1999/xlink" version="1.1"><path d="M0 205L53.3 209C106.7 213 213.3 221 320 223C426.7 225 533.3 221 640 201C746.7 181 853.3 145 960 115C1066.7 85 1173.3 61 1280 51C1386.7 41 1493.3 45 1546.7 47L1600 49L1600 0L1546.7 0C1493.3 0 1386.7 0 1280 0C1173.3 0 1066.7 0 960 0C853.3 0 746.7 0 640 0C533.3 0 426.7 0 320 0C213.3 0 106.7 0 53.3 0L0 0Z" fill="#073447"></path><path d="M0 361L53.3 373C106.7 385 213.3 409 320 415C426.7 421 533.3 409 640 373C746.7 337 853.3 277 960 233C1066.7 189 1173.3 161 1280 237C1386.7 313 1493.3 493 1546.7 583L1600 673L1600 47L1546.7 45C1493.3 43 1386.7 39 1280 49C1173.3 59 1066.7 83 960 113C853.3 143 746.7 179 640 199C533.3 219 426.7 223 320 221C213.3 219 106.7 211 53.3 207L0 203Z" fill="#114359"></path><path d="M0 373L53.3 399C106.7 425 213.3 477 320 505C426.7 533 533.3 537 640 509C746.7 481 853.3 421 960 371C1066.7 321 1173.3 281 1280 343C1386.7 405 1493.3 569 1546.7 651L1600 733L1600 671L1546.7 581C1493.3 491 1386.7 311 1280 235C1173.3 159 1066.7 187 960 231C853.3 275 746.7 335 640 371C533.3 407 426.7 419 320 413C213.3 407 106.7 383 53.3 371L0 359Z" fill="#1b536b"></path><path d="M0 805L53.3 825C106.7 845 213.3 885 320 867C426.7 849 533.3 773 640 759C746.7 745 853.3 793 960 825C1066.7 857 1173.3 873 1280 865C1386.7 857 1493.3 825 1546.7 809L1600 793L1600 731L1546.7 649C1493.3 567 1386.7 403 1280 341C1173.3 279 1066.7 319 960 369C853.3 419 746.7 479 640 507C533.3 535 426.7 531 320 503C213.3 475 106.7 423 53.3 397L0 371Z" fill="#25647e"></path><path d="M0 901L53.3 925C106.7 949 213.3 997 320 989C426.7 981 533.3 917 640 905C746.7 893 853.3 933 960 941C1066.7 949 1173.3 925 1280 901C1386.7 877 1493.3 853 1546.7 841L1600 829L1600 791L1546.7 807C1493.3 823 1386.7 855 1280 863C1173.3 871 1066.7 855 960 823C853.3 791 746.7 743 640 757C533.3 771 426.7 847 320 865C213.3 883 106.7 843 53.3 823L0 803Z" fill="#2f7592"></path><path d="M0 1009L53.3 1021C106.7 1033 213.3 1057 320 1057C426.7 1057 533.3 1033 640 1039C746.7 1045 853.3 1081 960 1091C1066.7 1101 1173.3 1085 1280 1059C1386.7 1033 1493.3 997 1546.7 979L1600 961L1600 827L1546.7 839C1493.3 851 1386.7 875 1280 899C1173.3 923 1066.7 947 960 939C853.3 931 746.7 891 640 903C533.3 915 426.7 979 320 987C213.3 995 106.7 947 53.3 923L0 899Z" fill="#3986a6"></path><path d="M0 1165L53.3 1171C106.7 1177 213.3 1189 320 1195C426.7 1201 533.3 1201 640 1189C746.7 1177 853.3 1153 960 1153C1066.7 1153 1173.3 1177 1280 1187C1386.7 1197 1493.3 1193 1546.7 1191L1600 1189L1600 959L1546.7 977C1493.3 995 1386.7 1031 1280 1057C1173.3 1083 1066.7 1099 960 1089C853.3 1079 746.7 1043 640 1037C533.3 1031 426.7 1055 320 1055C213.3 1055 106.7 1031 53.3 1019L0 1007Z" fill="#4398ba"></path><path d="M0 1201L53.3 1201C106.7 1201 213.3 1201 320 1201C426.7 1201 533.3 1201 640 1201C746.7 1201 853.3 1201 960 1201C1066.7 1201 1173.3 1201 1280 1201C1386.7 1201 1493.3 1201 1546.7 1201L1600 1201L1600 1187L1546.7 1189C1493.3 1191 1386.7 1195 1280 1185C1173.3 1175 1066.7 1151 960 1151C853.3 1151 746.7 1175 640 1187C533.3 1199 426.7 1199 320 1193C213.3 1187 106.7 1175 53.3 1169L0 1163Z" fill="#4dabcf"></path></svg>