<svg id="visual" viewBox="0 0 900 600" width="900" height="600" xmlns="http://www.w3.org/2000/svg" xmlns:xlink="http://www.w3.org/1999/xlink" version="1.1"><path d="M0 115L75 105C150 95 300 75 450 70C600 65 750 75 825 80L900 85L900 0L825 0C750 0 600 0 450 0C300 0 150 0 75 0L0 0Z" fill="#11768c"></path><path d="M0 175L75 166C150 157 300 139 450 136C600 133 750 145 825 151L900 157L900 83L825 78C750 73 600 63 450 68C300 73 150 93 75 103L0 113Z" fill="#107086"></path><path d="M0 277L75 275C150 273 300 269 450 269C600 269 750 273 825 275L900 277L900 155L825 149C750 143 600 131 450 134C300 137 150 155 75 164L0 173Z" fill="#0f6980"></path><path d="M0 289L75 290C150 291 300 293 450 296C600 299 750 303 825 305L900 307L900 275L825 273C750 271 600 267 450 267C300 267 150 271 75 273L0 275Z" fill="#0e637a"></path><path d="M0 319L75 319C150 319 300 319 450 321C600 323 750 327 825 329L900 331L900 305L825 303C750 301 600 297 450 294C300 291 150 289 75 288L0 287Z" fill="#0d5d73"></path><path d="M0 355L75 355C150 355 300 355 450 359C600 363 750 371 825 375L900 379L900 329L825 327C750 325 600 321 450 319C300 317 150 317 75 317L0 317Z" fill="#0c576d"></path><path d="M0 415L75 412C150 409 300 403 450 402C600 401 750 405 825 407L900 409L900 377L825 373C750 369 600 361 450 357C300 353 150 353 75 353L0 353Z" fill="#0c5167"></path><path d="M0 487L75 485C150 483 300 479 450 482C600 485 750 495 825 500L900 505L900 407L825 405C750 403 600 399 450 400C300 401 150 407 75 410L0 413Z" fill="#0b4b60"></path><path d="M0 505L75 504C150 503 300 501 450 503C600 505 750 511 825 514L900 517L900 503L825 498C750 493 600 483 450 480C300 477 150 481 75 483L0 485Z" fill="#0a455a"></path><path d="M0 535L75 535C150 535 300 535 450 536C600 537 750 539 825 540L900 541L900 515L825 512C750 509 600 503 450 501C300 499 150 501 75 502L0 503Z" fill="#093f54"></path><path d="M0 571L75 571C150 571 300 571 450 572C600 573 750 575 825 576L900 577L900 539L825 538C750 537 600 535 450 534C300 533 150 533 75 533L0 533Z" fill="#083a4d"></path><path d="M0 601L75 601C150 601 300 601 450 601C600 601 750 601 825 601L900 601L900 575L825 574C750 573 600 571 450 570C300 569 150 569 75 569L0 569Z" fill="#073447"></path></svg>